<?xml version="1.0" standalone="no"?>
<!DOCTYPE svg PUBLIC "-//W3C//DTD SVG 20010904//EN"
 "http://www.w3.org/TR/2001/REC-SVG-20010904/DTD/svg10.dtd">
<svg version="1.0" xmlns="http://www.w3.org/2000/svg"
 width="512.000000pt" height="512.000000pt" viewBox="0 0 512.000000 512.000000"
 preserveAspectRatio="xMidYMid meet">
<metadata>
Created by potrace 1.11, written by Peter Selinger 2001-2013
</metadata>
<g transform="translate(0.000000,512.000000) scale(0.100000,-0.100000)"
fill="#000000" stroke="none">
<path d="M2321 5110 c-497 -48 -990 -251 -1376 -565 -114 -92 -294 -274 -384
-387 -229 -287 -417 -675 -495 -1023 -49 -218 -60 -325 -60 -575 0 -250 11
-357 60 -575 79 -355 272 -749 509 -1040 92 -114 274 -294 387 -384 287 -229
675 -417 1023 -495 218 -49 325 -60 575 -60 250 0 357 11 575 60 261 58 603
204 828 353 389 259 688 599 893 1016 125 255 196 484 241 775 24 161 24 539
0 700 -45 291 -116 520 -241 775 -134 272 -283 480 -498 692 -211 209 -404
346 -673 478 -252 124 -486 197 -765 240 -126 19 -468 27 -599 15z m515 -856
c50 -7 133 -27 185 -44 360 -117 595 -365 659 -698 16 -81 8 -278 -15 -352
-52 -169 -143 -290 -379 -507 -242 -222 -361 -339 -400 -393 -41 -57 -70 -130
-96 -245 -24 -106 -35 -137 -69 -188 -37 -58 -99 -89 -186 -95 -181 -11 -291
91 -303 279 -13 219 64 433 216 599 36 40 163 161 282 270 243 222 298 290
327 402 49 190 -69 405 -263 478 -120 45 -283 47 -419 6 -144 -44 -245 -174
-347 -446 -46 -122 -63 -151 -115 -202 -102 -99 -290 -91 -398 17 -58 59 -85
126 -85 214 0 258 183 554 450 726 272 176 588 235 956 179z m-165 -2761 c119
-53 199 -177 199 -308 0 -198 -140 -337 -340 -337 -138 0 -262 74 -310 184
-49 112 -35 261 33 350 37 49 123 110 176 126 57 17 189 9 242 -15z"/>
</g>
</svg>
